<svg width="240" height="240" viewBox="0 0 240 240" fill="none" xmlns="http://www.w3.org/2000/svg">
<path d="M64.5407 114.115C92.6399 143.088 129.566 163.2 163.795 130.738C181.44 114.014 204.758 68.8512 181.747 48.1776C150.034 19.6944 131.827 66.2976 108.13 72.6144C91.8767 76.9344 78.2111 51.9744 58.7567 68.6496C43.3775 81.8256 52.8575 102.072 64.5407 114.115Z" fill="#407BFF"/>
<path opacity="0.9" d="M64.5407 114.115C92.6399 143.088 129.566 163.2 163.795 130.738C181.44 114.014 204.758 68.8512 181.747 48.1776C150.034 19.6944 131.827 66.2976 108.13 72.6144C91.8767 76.9344 78.2111 51.9744 58.7567 68.6496C43.3775 81.8256 52.8575 102.072 64.5407 114.115Z" fill="white"/>
<path d="M120 205.229C171.4 205.229 213.067 202.796 213.067 199.795C213.067 196.794 171.4 194.362 120 194.362C68.6005 194.362 26.9329 196.794 26.9329 199.795C26.9329 202.796 68.6005 205.229 120 205.229Z" fill="#F5F5F5"/>
<path d="M167.64 78.4464L162.878 76.5264C162.878 76.5264 156.595 87.984 154.795 88.5648C152.347 89.352 147.278 91.5408 144.273 91.9248C143.865 92.4048 143.198 93.8976 143.261 94.44C147.297 95.7888 156.168 93.9984 158.069 92.5872C162.393 89.3856 167.64 78.4464 167.64 78.4464Z" fill="#E58A7B"/>
<path d="M169.104 75.84C169.992 79.1184 165.182 85.7136 165.182 85.7136L158.88 82.1808C158.88 82.1808 160.061 79.4688 161.501 76.7088C163.809 72.2496 168.091 72.1008 169.104 75.84Z" fill="#407BFF"/>
<path opacity="0.2" d="M169.104 75.84C169.992 79.1184 165.182 85.7136 165.182 85.7136L158.88 82.1808C158.88 82.1808 160.061 79.4688 161.501 76.7088C163.809 72.2496 168.091 72.1008 169.104 75.84Z" fill="black"/>
<path opacity="0.2" d="M161.381 83.592L163.862 84.984L164.299 77.3664C162.854 78.4752 161.837 81.816 161.381 83.592Z" fill="black"/>
<path d="M164.957 73.3728C164.957 73.3728 160.051 84.288 162.912 104.611H182.242C182.549 101.645 181.531 87.168 185.213 73.1904C183.092 72.776 180.947 72.5018 178.79 72.3696C176.055 72.2111 173.313 72.2111 170.578 72.3696C168.681 72.5621 166.802 72.8975 164.957 73.3728Z" fill="#407BFF"/>
<path opacity="0.2" d="M164.957 73.3728C164.957 73.3728 160.051 84.288 162.912 104.611H182.242C182.549 101.645 181.531 87.168 185.213 73.1904C183.092 72.776 180.947 72.5018 178.79 72.3696C176.055 72.2111 173.313 72.2111 170.578 72.3696C168.681 72.5621 166.802 72.8975 164.957 73.3728Z" fill="black"/>
<g style="mix-blend-mode:multiply">
<path d="M160.474 200.227C160.445 200.746 167.774 201.163 176.842 201.163C185.909 201.163 193.291 200.746 193.32 200.227C193.349 199.709 186.024 199.296 176.952 199.296C167.88 199.296 160.507 199.714 160.474 200.227Z" fill="#E8ECF1"/>
</g>
<path d="M173.376 186.606L169.948 187.933L172.901 195.562L176.329 194.235L173.376 186.606Z" fill="#E58A7B"/>
<path d="M188.664 196.536H185.05L183.725 188.17H187.339L188.664 196.536Z" fill="#E58A7B"/>
<path d="M184.8 196.118H188.861C188.931 196.119 188.999 196.144 189.053 196.19C189.107 196.235 189.142 196.298 189.154 196.368L189.677 199.579C189.688 199.66 189.681 199.742 189.658 199.82C189.634 199.897 189.595 199.969 189.541 200.03C189.487 200.091 189.421 200.14 189.347 200.173C189.272 200.206 189.192 200.223 189.11 200.222C187.694 200.198 187.013 200.112 185.227 200.112C184.128 200.112 181.867 200.227 180.341 200.227C178.814 200.227 178.714 198.73 179.342 198.59C182.165 197.981 183.259 197.15 184.2 196.344C184.366 196.198 184.579 196.118 184.8 196.118Z" fill="#263238"/>
<path d="M172.8 194.88L176.64 193.757C176.708 193.737 176.782 193.742 176.847 193.77C176.913 193.798 176.966 193.848 177 193.91L178.44 196.79C178.473 196.863 178.49 196.943 178.49 197.023C178.49 197.104 178.472 197.183 178.437 197.256C178.403 197.328 178.353 197.393 178.292 197.444C178.23 197.496 178.158 197.533 178.08 197.554C176.683 197.938 175.747 198.173 174 198.682C172.795 199.032 171.566 199.603 170.376 199.982C169.55 200.246 167.611 200.256 166.608 200.256C165.125 200.256 164.794 198.691 165.432 198.619C167.04 198.442 167.256 198.523 168.144 198.077C169.597 197.442 170.914 196.532 172.022 195.398C172.231 195.16 172.5 194.981 172.8 194.88Z" fill="#263238"/>
<path d="M144.878 91.9056L140.904 90.24L139.267 94.6464C140.896 94.8945 142.553 94.8945 144.182 94.6464L144.878 91.9056Z" fill="#E58A7B"/>
<path d="M137.947 90.1248L137.842 93.0528L139.267 94.6368L140.904 90.2304L137.947 90.1248Z" fill="#E58A7B"/>
<path d="M173.846 187.254L170.407 188.582L171.93 192.527L175.369 191.199L173.846 187.254Z" fill="#CF6F64"/>
<path d="M187.339 188.17H183.725L184.411 192.485H188.026L187.339 188.17Z" fill="#CF6F64"/>
<path opacity="0.2" d="M162.298 99.1152C162.37 99.984 162.451 100.872 162.557 101.784L176.928 97.1184C179.172 96.4532 181.123 95.0429 182.458 93.12C182.515 91.8384 182.587 90.4896 182.698 89.0832C182.746 88.4016 182.803 87.7008 182.866 86.9904C182.928 86.28 183.015 85.4928 183.106 84.7344L162.298 99.1152Z" fill="black"/>
<path d="M166.992 83.3712L166.512 83.3136C166.795 80.9136 168.586 79.0224 170.472 79.0704V79.5504C168.821 79.5168 167.246 81.2208 166.992 83.3712Z" fill="white"/>
<path d="M169.55 87.8016H169.469V87.3216C171.12 87.384 172.67 85.6608 172.925 83.5152L173.405 83.5728C173.15 85.92 171.418 87.8016 169.55 87.8016Z" fill="white"/>
<path d="M178.522 63.12C177.845 65.7648 177.048 70.608 178.79 72.3696C178.79 72.3696 177.571 75.0528 172.661 75.0528C168.173 75.0528 170.578 72.3696 170.578 72.3696C173.563 71.6688 173.616 69.4896 173.222 67.4256L178.522 63.12Z" fill="#E58A7B"/>
<path d="M176.362 64.8768L173.227 67.4256C173.324 67.8999 173.381 68.3817 173.395 68.8656C174.312 69.7776 176.15 67.4688 176.338 66.288C176.433 65.8231 176.441 65.3446 176.362 64.8768Z" fill="#CF6F64"/>
<path d="M167.837 63.0864C168.055 63.4644 168.349 63.7934 168.7 64.0527C169.051 64.312 169.451 64.4962 169.877 64.5936C171.029 64.848 171.605 63.7872 171.288 62.7216C171.005 61.7616 170.059 60.4704 168.888 60.6912C168.637 60.7429 168.402 60.8539 168.203 61.015C168.004 61.1761 167.846 61.3826 167.743 61.6171C167.64 61.8517 167.595 62.1075 167.611 62.3631C167.628 62.6187 167.705 62.8667 167.837 63.0864Z" fill="#CF6F64"/>
<path d="M169.742 54.624C167.947 55.4448 167.314 62.5776 169.57 63.6336C171.826 64.6896 173.141 53.064 169.742 54.624Z" fill="#263238"/>
<path d="M179.069 59.1408C178.637 62.7216 178.589 64.8288 176.669 66.6624C176.074 67.2709 175.322 67.7031 174.497 67.9114C173.672 68.1196 172.805 68.0958 171.993 67.8425C171.18 67.5892 170.454 67.1164 169.893 66.4761C169.332 65.8359 168.96 65.0532 168.816 64.2144C168.235 60.9984 169.037 55.6848 172.627 54.2592C173.381 53.9265 174.211 53.8015 175.03 53.8974C175.849 53.9933 176.627 54.3064 177.284 54.8044C177.942 55.3024 178.453 55.9671 178.767 56.7296C179.081 57.492 179.185 58.3246 179.069 59.1408Z" fill="#E58A7B"/>
<path d="M173.17 56.4768C175.829 55.8 177.782 55.3392 177.082 57.552C176.155 60.5088 175.042 63.3696 176.534 63.4992C177.446 63.5808 181.478 61.872 180.965 60.1392C180.518 58.632 182.405 58.2192 182.741 57.456C183.984 54.6912 180.427 55.056 181.061 53.376C181.694 51.696 178.181 48.9888 176.261 50.3376C173.136 52.5168 167.774 52.4832 170.592 48.8976C172.613 46.3392 169.008 46.8624 169.008 46.8624C169.008 46.8624 171.187 48.1536 167.52 50.1504C163.642 52.2816 167.198 58.008 173.17 56.4768Z" fill="#263238"/>
<path d="M180.48 63.0864C179.955 63.846 179.166 64.3832 178.267 64.5936C177.081 64.848 176.625 63.7872 177.072 62.7216C177.47 61.7616 178.565 60.4704 179.697 60.6912C180.83 60.912 181.089 62.1456 180.48 63.0864Z" fill="#E58A7B"/>
<path d="M162.912 104.611C162.912 104.611 159.667 133.651 159.413 144.672C159.153 156.134 170.409 191.899 170.409 191.899L176.169 189.499C176.169 189.499 169.449 156.821 170.409 145.565C171.427 133.291 175.632 104.63 175.632 104.63L162.912 104.611Z" fill="#407BFF"/>
<path opacity="0.2" d="M170.976 112.584C168.389 117.95 170.131 128.563 171.533 134.851C172.065 130.411 172.699 125.592 173.299 121.133C173.241 114.278 172.709 108.984 170.976 112.584Z" fill="black"/>
<path d="M175.915 187.598C175.944 187.598 176.597 189.432 176.597 189.432L169.954 192.226L168.907 190.277L175.915 187.598Z" fill="#407BFF"/>
<path d="M169.771 104.611C169.771 104.611 172.253 132.23 173.894 142.574C175.699 153.907 182.774 191.65 182.774 191.65H189.394C189.394 191.65 185.429 154.824 184.68 143.602C183.864 131.429 182.242 104.611 182.242 104.611H169.771Z" fill="#407BFF"/>
<path d="M189.494 189.926C189.523 189.926 189.715 191.774 189.715 191.774H182.438L181.92 189.653L189.494 189.926Z" fill="#407BFF"/>
<path opacity="0.2" d="M186.96 187.738C186.945 187.738 186.931 187.733 186.919 187.723C186.908 187.713 186.9 187.7 186.898 187.685C186.859 187.349 183.283 154.085 182.611 144.005C181.882 133.07 180.413 108.816 180.399 108.571C180.398 108.563 180.399 108.555 180.401 108.548C180.404 108.54 180.408 108.533 180.414 108.527C180.419 108.521 180.426 108.517 180.433 108.514C180.44 108.51 180.448 108.509 180.456 108.509C180.472 108.509 180.487 108.515 180.499 108.525C180.51 108.536 180.517 108.551 180.519 108.566C180.519 108.811 182.002 133.046 182.731 144C183.403 154.08 186.979 187.32 187.013 187.68C187.014 187.688 187.014 187.696 187.012 187.704C187.01 187.712 187.006 187.719 187.001 187.725C186.996 187.732 186.99 187.737 186.983 187.741C186.976 187.744 186.968 187.747 186.96 187.747V187.738Z" fill="black"/>
<path d="M173.578 60.1392C173.578 60.432 173.395 60.6672 173.203 60.6672C173.011 60.6672 172.872 60.432 172.891 60.1392C172.91 59.8464 173.074 59.6112 173.266 59.6112C173.458 59.6112 173.597 59.8512 173.578 60.1392Z" fill="#263238"/>
<path d="M170.285 60.1392C170.285 60.432 170.098 60.6672 169.91 60.6672C169.723 60.6672 169.579 60.432 169.594 60.1392C169.608 59.8464 169.781 59.6112 169.973 59.6112C170.165 59.6112 170.304 59.8512 170.285 60.1392Z" fill="#263238"/>
<path d="M171.322 60.288C170.921 61.1821 170.404 62.0197 169.786 62.7792C170.266 63.2592 171.163 63.0384 171.163 63.0384L171.322 60.288Z" fill="#DF5753"/>
<path d="M171.408 64.2624C171.397 64.2624 171.386 64.2602 171.376 64.2558C171.365 64.2514 171.356 64.2449 171.349 64.2368C171.341 64.2287 171.335 64.2191 171.331 64.2087C171.327 64.1982 171.326 64.1871 171.326 64.176C171.328 64.1526 171.338 64.1307 171.355 64.1146C171.372 64.0985 171.394 64.0896 171.418 64.0896C171.785 64.0921 172.148 64.0124 172.48 63.8562C172.812 63.7001 173.105 63.4715 173.338 63.1872C173.354 63.1727 173.376 63.1647 173.398 63.1647C173.42 63.1647 173.441 63.1727 173.458 63.1872C173.473 63.2033 173.482 63.2248 173.482 63.2472C173.482 63.2696 173.473 63.2911 173.458 63.3072C173.209 63.6093 172.896 63.8519 172.541 64.0172C172.186 64.1825 171.799 64.2663 171.408 64.2624Z" fill="#263238"/>
<path d="M174.163 59.256C174.14 59.2678 174.115 59.2739 174.089 59.2739C174.063 59.2739 174.037 59.2678 174.014 59.256C173.835 59.1399 173.63 59.0677 173.418 59.0452C173.205 59.0227 172.99 59.0505 172.79 59.1264C172.771 59.1361 172.75 59.1419 172.728 59.1433C172.706 59.1447 172.684 59.1417 172.664 59.1346C172.643 59.1274 172.624 59.1162 172.608 59.1016C172.592 59.087 172.579 59.0693 172.57 59.0496C172.552 59.0069 172.551 58.9589 172.568 58.9159C172.585 58.8728 172.619 58.8381 172.661 58.8192C172.912 58.7167 173.184 58.6763 173.454 58.7013C173.724 58.7264 173.983 58.8162 174.211 58.9632C174.23 58.9757 174.245 58.9917 174.257 59.0104C174.27 59.029 174.278 59.0499 174.282 59.0718C174.286 59.0936 174.286 59.1161 174.281 59.1378C174.276 59.1596 174.267 59.1802 174.254 59.1984C174.23 59.2259 174.198 59.2459 174.163 59.256Z" fill="#263238"/>
<path d="M169.013 58.296C168.987 58.2898 168.964 58.2765 168.945 58.2576C168.929 58.242 168.917 58.2233 168.908 58.2027C168.899 58.1821 168.895 58.16 168.895 58.1376C168.895 58.1152 168.899 58.0931 168.908 58.0725C168.917 58.0519 168.929 58.0332 168.945 58.0176C169.129 57.8113 169.359 57.6502 169.615 57.5469C169.871 57.4437 170.148 57.4011 170.424 57.4224C170.446 57.4258 170.467 57.4337 170.486 57.4456C170.505 57.4575 170.521 57.4732 170.534 57.4917C170.546 57.5101 170.555 57.5309 170.559 57.5529C170.563 57.5748 170.563 57.5974 170.558 57.6192C170.548 57.6636 170.522 57.7028 170.485 57.7293C170.448 57.7558 170.402 57.7679 170.357 57.7632C170.139 57.7495 169.92 57.7855 169.718 57.8687C169.516 57.9519 169.335 58.0799 169.19 58.2432C169.168 58.2675 169.14 58.2853 169.109 58.2946C169.078 58.3039 169.044 58.3044 169.013 58.296Z" fill="#263238"/>
<path d="M187.07 77.9136L182.078 76.584C182.078 76.584 177.182 88.6368 175.45 89.4192C173.098 90.4944 167.141 94.2192 164.606 95.9808C164.467 96.5808 164.578 98.1696 164.894 98.6064C169.214 97.8192 177.485 94.6368 179.213 93.0192C183.154 89.328 187.07 77.9136 187.07 77.9136Z" fill="#E58A7B"/>
<path d="M183.586 196.752C183.342 196.771 183.099 196.705 182.899 196.565C182.837 196.509 182.791 196.438 182.765 196.359C182.739 196.28 182.734 196.195 182.75 196.114C182.753 196.063 182.77 196.013 182.799 195.971C182.828 195.929 182.867 195.895 182.914 195.874C183.317 195.667 184.445 196.382 184.574 196.464C184.589 196.473 184.6 196.486 184.606 196.502C184.612 196.517 184.613 196.534 184.608 196.55C184.604 196.567 184.596 196.583 184.584 196.595C184.572 196.608 184.557 196.617 184.541 196.622C184.228 196.699 183.908 196.743 183.586 196.752ZM183.106 196.003C183.069 195.995 183.032 195.995 182.995 196.003C182.977 196.013 182.962 196.027 182.951 196.045C182.941 196.063 182.936 196.083 182.938 196.104C182.925 196.16 182.927 196.218 182.944 196.273C182.961 196.328 182.992 196.377 183.034 196.416C183.221 196.584 183.691 196.603 184.31 196.483C183.942 196.24 183.527 196.077 183.091 196.003H183.106Z" fill="#407BFF"/>
<path d="M184.517 196.622C184.504 196.626 184.491 196.626 184.478 196.622C184.118 196.421 183.441 195.629 183.542 195.226C183.557 195.162 183.593 195.105 183.645 195.064C183.696 195.023 183.76 195 183.825 195C183.89 194.991 183.955 194.997 184.017 195.016C184.08 195.035 184.137 195.067 184.185 195.11C184.584 195.451 184.608 196.498 184.608 196.55C184.61 196.566 184.607 196.582 184.599 196.596C184.592 196.61 184.579 196.621 184.565 196.627C184.549 196.63 184.532 196.629 184.517 196.622ZM183.873 195.158H183.84C183.729 195.158 183.715 195.221 183.71 195.245C183.653 195.48 184.08 196.08 184.435 196.363C184.433 195.958 184.308 195.562 184.075 195.23C184.019 195.182 183.947 195.156 183.873 195.158Z" fill="#407BFF"/>
<path d="M170.841 196.152C170.548 196.254 170.228 196.254 169.934 196.152C169.868 196.116 169.811 196.063 169.77 196C169.729 195.936 169.704 195.863 169.699 195.787C169.693 195.74 169.699 195.691 169.717 195.647C169.734 195.603 169.763 195.563 169.8 195.533C170.184 195.187 171.753 195.533 171.931 195.6C171.948 195.604 171.963 195.614 171.973 195.628C171.984 195.642 171.989 195.659 171.989 195.677C171.989 195.695 171.985 195.713 171.975 195.728C171.966 195.743 171.952 195.756 171.936 195.763C171.582 195.923 171.216 196.053 170.841 196.152ZM170.059 195.581C170.004 195.592 169.953 195.617 169.91 195.653C169.895 195.664 169.883 195.68 169.876 195.698C169.87 195.715 169.868 195.735 169.872 195.754C169.875 195.804 169.891 195.853 169.918 195.896C169.944 195.938 169.981 195.974 170.025 195.998C170.28 196.133 170.87 196.027 171.633 195.706C171.119 195.576 170.587 195.534 170.059 195.581Z" fill="#407BFF"/>
<path d="M171.922 195.763H171.883C171.403 195.677 170.443 195.125 170.414 194.712C170.414 194.616 170.458 194.482 170.688 194.405C170.766 194.377 170.848 194.365 170.931 194.37C171.013 194.375 171.094 194.397 171.168 194.434C171.686 194.688 171.96 195.61 171.974 195.653C171.978 195.667 171.977 195.682 171.973 195.697C171.969 195.711 171.961 195.724 171.95 195.734C171.943 195.746 171.933 195.756 171.922 195.763ZM170.784 194.549H170.736C170.587 194.602 170.587 194.664 170.587 194.683C170.587 194.933 171.283 195.389 171.768 195.542C171.656 195.157 171.42 194.819 171.096 194.582C171 194.533 170.889 194.521 170.784 194.549Z" fill="#407BFF"/>
<path d="M165.014 95.6976L160.008 98.0016L159.427 99.4416L161.275 100.685C161.275 100.685 164.731 100.31 165.715 98.088L165.014 95.6976Z" fill="#E58A7B"/>
<path d="M165.226 98.688C165.114 97.7261 164.796 96.7995 164.294 95.9712L165.086 95.376C165.682 96.3304 166.062 97.4034 166.2 98.52L165.226 98.688Z" fill="#263238"/>
<path d="M166.08 96.3792C166.186 96.5456 166.238 96.7407 166.229 96.9377C166.22 97.1348 166.15 97.3243 166.03 97.4805C165.91 97.6367 165.744 97.752 165.556 97.8108C165.367 97.8695 165.165 97.8688 164.978 97.8087C164.79 97.7486 164.625 97.6321 164.505 97.4751C164.386 97.318 164.318 97.128 164.311 96.9308C164.303 96.7337 164.356 96.5391 164.463 96.3734C164.57 96.2077 164.726 96.079 164.909 96.0048C165.114 95.9002 165.352 95.8809 165.571 95.951C165.791 96.0211 165.973 96.175 166.08 96.3792Z" fill="#263238"/>
<path d="M156.624 99.864L157.291 100.536L161.784 98.616L160.008 98.0016L156.624 99.864Z" fill="#E58A7B"/>
<path opacity="0.2" d="M175.915 187.598C175.944 187.598 176.597 189.432 176.597 189.432L169.954 192.226L168.907 190.277L175.915 187.598Z" fill="black"/>
<path opacity="0.2" d="M189.494 189.926C189.523 189.926 189.715 191.774 189.715 191.774H182.438L181.92 189.653L189.494 189.926Z" fill="black"/>
<path d="M188.371 76.5312C189.691 80.7888 184.531 86.6112 184.531 86.6112L177.403 83.7024C178.248 81.2415 179.222 78.827 180.321 76.4688C182.51 71.7504 187.037 72.2352 188.371 76.5312Z" fill="#407BFF"/>
<path opacity="0.2" d="M188.371 76.5312C189.691 80.7888 184.531 86.6112 184.531 86.6112L177.403 83.7024C178.248 81.2415 179.222 78.827 180.321 76.4688C182.51 71.7504 187.037 72.2352 188.371 76.5312Z" fill="black"/>
<path d="M117.542 33.8736H114.475V34.368H117.542V33.8736Z" fill="#407BFF"/>
<path d="M157.247 53.4415L156.876 61.6796L157.37 61.7018L157.741 53.4638L157.247 53.4415Z" fill="#407BFF"/>
<path d="M156.293 36.0912H99.6528L94.3824 154.037H151.022L156.293 36.0912Z" fill="#407BFF"/>
<path opacity="0.56" d="M154.603 37.7136H97.963L92.6926 155.659H149.333L154.603 37.7136Z" fill="#FAFAFA"/>
<path opacity="0.07" d="M152.913 39.3312H96.2735L90.9983 157.277H147.638L152.913 39.3312Z" fill="#407BFF"/>
<path d="M146.467 90.7728H98.1215L97.7183 99.7968H146.064L146.467 90.7728Z" fill="white"/>
<path d="M124.709 84.1872H98.4145L98.2369 88.224H124.531L124.709 84.1872Z" fill="#407BFF"/>
<path d="M145.377 115.128H97.0319L96.6287 124.152H144.974L145.377 115.128Z" fill="white"/>
<path opacity="0.47" d="M136.512 136.339H104.001L103.517 147.154H136.027L136.512 136.339Z" fill="#407BFF"/>
<path d="M134.338 148.834H101.827C101.813 148.837 101.798 148.837 101.784 148.834C101.779 148.82 101.779 148.804 101.784 148.79L102.264 137.971C102.264 137.964 102.265 137.957 102.268 137.95C102.271 137.943 102.276 137.937 102.281 137.932C102.287 137.927 102.293 137.923 102.3 137.921C102.307 137.919 102.314 137.918 102.322 137.918H134.832C134.838 137.915 134.845 137.914 134.851 137.914C134.858 137.914 134.864 137.915 134.87 137.918C134.874 137.924 134.876 137.931 134.876 137.938C134.876 137.944 134.874 137.951 134.87 137.957L134.4 148.8C134.394 148.811 134.385 148.82 134.374 148.826C134.363 148.832 134.35 148.835 134.338 148.834ZM101.885 148.718H134.28L134.76 138.014H102.365L101.885 148.718Z" fill="white"/>
<path d="M119.03 108.542H97.3248L97.1472 112.584H118.848L119.03 108.542Z" fill="#407BFF"/>
<path d="M135.893 61.6224C135.769 64.2486 134.835 66.7721 133.219 68.8464C132.023 70.4132 130.484 71.6851 128.72 72.5646C126.956 73.4441 125.014 73.9078 123.043 73.92C121.45 73.9321 119.872 73.618 118.405 72.9971C116.938 72.3761 115.614 71.4614 114.514 70.3093C113.414 69.1572 112.562 67.7922 112.01 66.2982C111.457 64.8042 111.217 63.2129 111.302 61.6224C111.471 58.3219 112.895 55.2106 115.281 52.9247C117.668 50.6388 120.838 49.3511 124.142 49.3248C125.736 49.3099 127.317 49.6221 128.785 50.242C130.254 50.8619 131.58 51.7763 132.681 52.9289C133.782 54.0814 134.635 55.4475 135.188 56.9428C135.74 58.438 135.98 60.0307 135.893 61.6224Z" fill="white"/>
<path d="M137.05 51.8976C137.018 52.5959 136.77 53.2671 136.339 53.8176C136.02 54.2337 135.611 54.5716 135.142 54.8053C134.673 55.0391 134.156 55.1626 133.632 55.1664C133.124 55.1695 132.623 55.0482 132.173 54.813C131.723 54.5779 131.337 54.2361 131.05 53.8176C130.669 53.252 130.48 52.5787 130.512 51.8976C130.558 51.0213 130.937 50.1957 131.571 49.5892C132.206 48.9827 133.047 48.6409 133.925 48.6336C134.348 48.6297 134.768 48.7126 135.158 48.8771C135.548 49.0415 135.9 49.2841 136.193 49.5899C136.486 49.8957 136.713 50.2582 136.86 50.6551C137.007 51.052 137.072 51.4748 137.05 51.8976Z" fill="#407BFF"/>
<path d="M103.33 95.2848C103.306 95.6716 103.138 96.0353 102.857 96.3025C102.576 96.5697 102.205 96.7206 101.818 96.7248C101.63 96.727 101.445 96.6909 101.272 96.6185C101.1 96.5462 100.944 96.4392 100.814 96.3043C100.685 96.1693 100.584 96.0092 100.519 95.8339C100.454 95.6585 100.425 95.4716 100.435 95.2848C100.456 94.8972 100.624 94.5322 100.905 94.2645C101.186 93.9969 101.559 93.8467 101.947 93.8448C102.134 93.8433 102.319 93.8799 102.491 93.9525C102.664 94.0251 102.819 94.132 102.949 94.2669C103.078 94.4017 103.179 94.5615 103.244 94.7365C103.31 94.9116 103.339 95.0981 103.33 95.2848Z" fill="#263238"/>
<path d="M109.8 95.2848C109.778 95.672 109.61 96.0363 109.329 96.3038C109.048 96.5712 108.676 96.7218 108.288 96.7248C108.101 96.7264 107.916 96.6897 107.744 96.6171C107.572 96.5445 107.417 96.4374 107.288 96.3025C107.159 96.1676 107.059 96.0077 106.994 95.8327C106.929 95.6577 106.901 95.4712 106.91 95.2848C106.931 94.898 107.099 94.5337 107.379 94.2662C107.659 93.9986 108.03 93.8479 108.418 93.8448C108.605 93.8426 108.79 93.8787 108.963 93.9511C109.135 94.0234 109.291 94.1303 109.421 94.2653C109.55 94.4003 109.651 94.5604 109.716 94.7357C109.781 94.9111 109.81 95.098 109.8 95.2848Z" fill="#263238"/>
<path d="M116.275 95.2848C116.253 95.672 116.085 96.0363 115.804 96.3038C115.523 96.5712 115.151 96.7218 114.763 96.7248C114.576 96.7263 114.391 96.6897 114.219 96.6171C114.047 96.5445 113.891 96.4376 113.762 96.3027C113.632 96.1679 113.532 96.0081 113.466 95.8331C113.401 95.658 113.372 95.4715 113.381 95.2848C113.403 94.8976 113.571 94.5333 113.852 94.2658C114.133 93.9984 114.505 93.8478 114.893 93.8448C115.08 93.8426 115.266 93.8787 115.438 93.9511C115.611 94.0234 115.767 94.1303 115.896 94.2653C116.026 94.4003 116.126 94.5604 116.191 94.7357C116.257 94.9111 116.285 95.098 116.275 95.2848Z" fill="#263238"/>
<path d="M102.24 119.64C102.217 120.027 102.048 120.39 101.767 120.658C101.487 120.925 101.115 121.076 100.728 121.08C100.541 121.082 100.356 121.045 100.183 120.972C100.011 120.9 99.8557 120.793 99.7262 120.658C99.5968 120.523 99.4963 120.363 99.4308 120.188C99.3653 120.013 99.3362 119.827 99.3454 119.64C99.3673 119.253 99.5358 118.888 99.8167 118.621C100.097 118.354 100.47 118.203 100.857 118.2C101.044 118.198 101.23 118.235 101.402 118.308C101.574 118.38 101.73 118.487 101.859 118.622C101.988 118.757 102.089 118.917 102.154 119.092C102.22 119.267 102.249 119.453 102.24 119.64Z" fill="#263238"/>
<path d="M108.711 119.64C108.689 120.026 108.521 120.39 108.241 120.657C107.961 120.925 107.59 121.076 107.203 121.08C107.016 121.082 106.831 121.046 106.658 120.974C106.486 120.901 106.33 120.794 106.2 120.659C106.071 120.525 105.97 120.364 105.905 120.189C105.84 120.014 105.811 119.827 105.821 119.64C105.843 119.253 106.011 118.888 106.292 118.621C106.573 118.354 106.945 118.203 107.333 118.2C107.52 118.198 107.705 118.235 107.877 118.308C108.049 118.38 108.204 118.487 108.333 118.622C108.462 118.757 108.562 118.917 108.627 119.092C108.692 119.267 108.72 119.454 108.711 119.64Z" fill="#263238"/>
<path d="M115.2 119.64C115.178 120.027 115.01 120.392 114.729 120.659C114.448 120.926 114.076 121.077 113.688 121.08C113.501 121.081 113.317 121.044 113.145 120.971C112.973 120.898 112.817 120.791 112.688 120.656C112.559 120.522 112.458 120.362 112.393 120.187C112.327 120.013 112.297 119.826 112.306 119.64C112.329 119.253 112.498 118.89 112.778 118.622C113.059 118.355 113.43 118.204 113.818 118.2C114.005 118.198 114.19 118.234 114.363 118.306C114.535 118.379 114.691 118.486 114.821 118.621C114.95 118.755 115.051 118.916 115.116 119.091C115.181 119.266 115.21 119.453 115.2 119.64Z" fill="#263238"/>
<path d="M121.661 119.64C121.638 120.027 121.469 120.39 121.188 120.658C120.908 120.925 120.536 121.076 120.149 121.08C119.962 121.081 119.777 121.044 119.605 120.971C119.433 120.898 119.278 120.791 119.149 120.656C119.02 120.522 118.919 120.362 118.853 120.187C118.788 120.013 118.758 119.826 118.766 119.64C118.789 119.253 118.958 118.89 119.239 118.622C119.52 118.355 119.891 118.204 120.278 118.2C120.465 118.198 120.651 118.235 120.823 118.308C120.995 118.38 121.151 118.487 121.28 118.622C121.409 118.757 121.51 118.917 121.575 119.092C121.641 119.267 121.67 119.453 121.661 119.64Z" fill="#263238"/>
<path d="M128.16 119.64C128.137 120.027 127.968 120.39 127.688 120.658C127.407 120.925 127.036 121.076 126.648 121.08C126.461 121.082 126.275 121.046 126.103 120.974C125.93 120.901 125.774 120.794 125.645 120.659C125.515 120.525 125.415 120.364 125.35 120.189C125.284 120.014 125.256 119.827 125.266 119.64C125.288 119.253 125.456 118.888 125.737 118.621C126.018 118.354 126.39 118.203 126.778 118.2C126.965 118.198 127.15 118.235 127.322 118.308C127.494 118.38 127.65 118.487 127.779 118.622C127.909 118.757 128.009 118.917 128.075 119.092C128.14 119.267 128.169 119.453 128.16 119.64Z" fill="#263238"/>
<path d="M127.177 60.9819C129.186 59.0173 129.293 55.8681 127.416 53.9482C125.538 52.0282 122.387 52.0644 120.378 54.0291C118.369 55.9937 118.263 59.1429 120.14 61.0629C122.018 62.9828 125.168 62.9466 127.177 60.9819Z" fill="#407BFF"/>
<path d="M133.219 68.8464C132.023 70.4132 130.484 71.6852 128.72 72.5646C126.956 73.4441 125.014 73.9078 123.043 73.92C121.132 73.9362 119.246 73.4819 117.552 72.5971C115.857 71.7123 114.407 70.4242 113.328 68.8464C115.661 66.5232 119.352 65.0064 123.441 65.0064C127.531 65.0064 131.093 66.5232 133.219 68.8464Z" fill="#407BFF"/>
<path opacity="0.1" d="M127.177 60.9819C129.186 59.0173 129.293 55.8681 127.416 53.9482C125.538 52.0282 122.387 52.0644 120.378 54.0291C118.369 55.9937 118.263 59.1429 120.14 61.0629C122.018 62.9828 125.168 62.9466 127.177 60.9819Z" fill="white"/>
<path opacity="0.1" d="M133.219 68.8464C132.023 70.4132 130.484 71.6852 128.72 72.5646C126.956 73.4441 125.014 73.9078 123.043 73.92C121.132 73.9362 119.246 73.4819 117.552 72.5971C115.857 71.7123 114.407 70.4242 113.328 68.8464C115.661 66.5232 119.352 65.0064 123.441 65.0064C127.531 65.0064 131.093 66.5232 133.219 68.8464Z" fill="white"/>
</svg>
