<svg width="240" height="241" viewBox="0 0 240 241" fill="none" xmlns="http://www.w3.org/2000/svg">
<path d="M145.31 142.358C127.632 157.214 111.36 164.328 89.8176 150.024C72.2544 138.355 80.256 125.371 71.2656 110.414C60.0912 91.8384 38.1936 91.9056 34.7856 69.3168C31.464 47.5152 53.28 29.5056 75.0384 31.0224C98.2896 32.6448 110.827 55.6944 130.541 64.7664C153.658 75.4032 177.326 66.3792 198.125 84.6192C212.083 96.864 212.942 115.819 195.926 126.662C180.235 136.675 161.52 128.731 145.31 142.358Z" fill="#407BFF"/>
<path opacity="0.9" d="M145.31 142.358C127.632 157.214 111.36 164.328 89.8176 150.024C72.2544 138.355 80.256 125.371 71.2656 110.414C60.0912 91.8384 38.1936 91.9056 34.7856 69.3168C31.464 47.5152 53.28 29.5056 75.0384 31.0224C98.2896 32.6448 110.827 55.6944 130.541 64.7664C153.658 75.4032 177.326 66.3792 198.125 84.6192C212.083 96.864 212.942 115.819 195.926 126.662C180.235 136.675 161.52 128.731 145.31 142.358Z" fill="white"/>
<path d="M120 205.877C171.4 205.877 213.067 203.444 213.067 200.443C213.067 197.442 171.4 195.01 120 195.01C68.6005 195.01 26.9329 197.442 26.9329 200.443C26.9329 203.444 68.6005 205.877 120 205.877Z" fill="#F5F5F5"/>
<path d="M141.941 78.5856L141.773 79.152L141.619 79.632C141.514 79.9536 141.398 80.2512 141.283 80.5584C141.053 81.1584 140.803 81.744 140.53 82.3248C139.997 83.4797 139.396 84.6017 138.73 85.6848C138.398 86.2272 138.048 86.7504 137.693 87.2736C137.338 87.7968 136.958 88.3008 136.56 88.7952C135.779 89.7947 134.941 90.7483 134.05 91.6512L133.862 91.8432C133.604 92.1081 133.298 92.3215 132.96 92.472C131.96 92.9095 130.873 93.1115 129.782 93.0624C128.833 93.0111 127.9 92.7917 127.027 92.4144C126.296 92.1053 125.604 91.7088 124.968 91.2336C124.397 90.8166 123.856 90.3595 123.35 89.8656C122.431 88.9453 121.602 87.9391 120.874 86.8608C120.518 86.3424 120.192 85.8096 119.88 85.272C119.568 84.7344 119.299 84.1968 119.006 83.5776C118.815 83.1742 118.771 82.7167 118.881 82.284C118.99 81.8513 119.248 81.4704 119.608 81.2068C119.968 80.9431 120.409 80.8132 120.855 80.8395C121.3 80.8657 121.723 81.0464 122.05 81.3504L122.174 81.4656L123.346 82.5408C123.744 82.9056 124.152 83.256 124.56 83.592C125.333 84.2475 126.151 84.8474 127.008 85.3872C127.679 85.8342 128.423 86.1592 129.206 86.3472C129.406 86.4034 129.617 86.4034 129.816 86.3472C129.882 86.3178 129.936 86.2671 129.97 86.2032L128.866 87.0384C129.475 86.2128 130.066 85.3776 130.608 84.5136C131.15 83.6496 131.669 82.7568 132.154 81.8592C132.638 80.9616 133.085 80.0352 133.498 79.1088C133.709 78.6288 133.896 78.1776 134.088 77.7168L134.568 76.4592L134.702 76.1136C135.086 75.2283 135.788 74.5196 136.67 74.1285C137.552 73.7374 138.548 73.6925 139.462 74.0029C140.375 74.3132 141.138 74.9559 141.599 75.8033C142.061 76.6506 142.186 77.6405 141.95 78.576L141.941 78.5856Z" fill="#263238"/>
<path d="M120.365 83.6017L117.12 82.4737L116.438 78.0289C116.438 78.0289 121.877 79.4689 121.853 82.0897L120.365 83.6017Z" fill="#CE7A63"/>
<path d="M139.478 60.4464C137.362 59.7024 134.438 57.168 135.586 53.8896C136.459 51.4032 139.694 51.1824 140.966 51.9264C142.238 52.6704 142.291 51.144 143.918 50.5584C145.546 49.9728 146.693 51.4464 147.518 52.2192C148.344 52.992 149.309 52.4064 150.533 52.4592C151.757 52.512 152.63 54.1152 151.949 55.2864C150.749 57.3408 152.731 58.6464 151.229 60.2496C149.016 62.5776 150.749 64.8624 147.629 67.1808C145.733 68.6016 140.347 65.9952 139.478 60.4464Z" fill="#263238"/>
<path d="M139.44 62.616C139.361 62.663 139.272 62.6909 139.181 62.6976C139.022 62.711 138.864 62.6609 138.742 62.5584C138.619 62.4559 138.543 62.3093 138.528 62.1504C138.422 61.1978 138.547 60.2338 138.891 59.3392C139.235 58.4447 139.789 57.6458 140.506 57.0096C140.568 56.9602 140.639 56.9237 140.715 56.9022C140.792 56.8808 140.871 56.8748 140.95 56.8846C141.029 56.8944 141.105 56.9199 141.174 56.9595C141.242 56.9991 141.302 57.0521 141.35 57.1152C141.4 57.1769 141.436 57.2478 141.458 57.3237C141.48 57.3996 141.487 57.4791 141.478 57.5576C141.469 57.636 141.445 57.712 141.406 57.7811C141.368 57.8501 141.316 57.9109 141.254 57.96C140.694 58.4703 140.263 59.1073 139.998 59.8179C139.733 60.5284 139.642 61.292 139.733 62.0448C139.742 62.1579 139.72 62.2715 139.668 62.3725C139.617 62.4735 139.537 62.5579 139.44 62.616Z" fill="#263238"/>
<path d="M135.989 73.7857C135.989 73.7857 131.731 84.6817 135.773 104.986H155.074C155.208 102.024 153.346 87.5713 156.202 73.6129C154.068 73.2025 151.91 72.93 149.741 72.7969C147.009 72.6384 144.27 72.6384 141.538 72.7969C139.665 72.9805 137.81 73.3112 135.989 73.7857Z" fill="white"/>
<path d="M148.93 63.528C148.411 66.168 147.898 71.0064 149.741 72.768C149.741 72.768 146.65 75.2736 143.4 77.808C142.682 77.1993 142.133 76.4156 141.807 75.5326C141.481 74.6496 141.388 73.6974 141.538 72.768C144.48 72.0672 144.418 69.888 143.894 67.8288L148.93 63.528Z" fill="#CE7A63"/>
<path opacity="0.2" d="M146.88 65.2993L143.899 67.8433C144.026 68.3148 144.112 68.7967 144.154 69.2833C145.114 70.1953 146.822 67.8865 146.942 66.7105C147.006 66.2401 146.985 65.7622 146.88 65.2993Z" fill="black"/>
<path d="M148.896 59.0881C149.03 62.6689 149.29 64.7569 147.677 66.7681C145.243 69.7825 140.693 68.5873 139.493 65.1169C138.413 61.9969 138.374 56.6689 141.72 54.9121C142.454 54.5209 143.276 54.3236 144.107 54.3392C144.939 54.3547 145.753 54.5824 146.472 55.0007C147.19 55.4191 147.79 56.0141 148.215 56.7294C148.639 57.4448 148.874 58.2567 148.896 59.0881Z" fill="#CE7A63"/>
<path d="M148.8 62.4C147.816 64.32 146.683 58.248 146.971 57.2352C143.491 58.1952 138.154 57.8784 138.566 55.4496C139.046 52.7088 142.234 52.6032 145.766 52.9392C151.598 53.5008 149.866 60.3168 148.8 62.4Z" fill="#263238"/>
<path d="M147.077 62.7408C146.986 62.746 146.896 62.7296 146.813 62.6928C146.74 62.661 146.674 62.6152 146.619 62.5579C146.564 62.5006 146.521 62.4331 146.492 62.3591C146.463 62.2851 146.449 62.2061 146.45 62.1266C146.452 62.0472 146.469 61.9688 146.501 61.896C146.864 61.0094 147.434 60.2228 148.164 59.6022C148.894 58.9817 149.763 58.5453 150.696 58.3296C150.852 58.3016 151.013 58.3363 151.143 58.4262C151.273 58.5161 151.363 58.6539 151.392 58.8096C151.418 58.9652 151.382 59.1246 151.292 59.2544C151.203 59.3841 151.067 59.4742 150.912 59.5056C150.173 59.6883 149.489 60.045 148.916 60.546C148.343 61.047 147.899 61.6778 147.619 62.3856C147.573 62.4913 147.498 62.5812 147.401 62.6443C147.305 62.7075 147.192 62.741 147.077 62.7408Z" fill="#263238"/>
<path d="M150.682 61.608C150.492 62.4704 149.994 63.2336 149.28 63.7536C148.344 64.4064 147.605 63.6048 147.629 62.4768C147.653 61.464 148.171 59.9088 149.218 59.7072C150.264 59.5056 150.917 60.5472 150.682 61.608Z" fill="#CE7A63"/>
<path d="M133.814 195.706C133.368 195.816 132.922 195.859 132.73 195.706C132.681 195.66 132.647 195.601 132.633 195.535C132.619 195.47 132.626 195.402 132.653 195.341C132.669 195.286 132.697 195.235 132.734 195.191C132.771 195.147 132.817 195.111 132.869 195.086C133.411 194.784 134.789 195.178 134.851 195.197C134.869 195.201 134.885 195.211 134.896 195.226C134.907 195.24 134.913 195.258 134.913 195.276C134.913 195.294 134.907 195.312 134.896 195.326C134.885 195.341 134.869 195.351 134.851 195.355C134.516 195.502 134.169 195.619 133.814 195.706ZM133.104 195.163C133.051 195.176 132.999 195.195 132.95 195.221C132.919 195.236 132.891 195.257 132.868 195.284C132.844 195.31 132.827 195.341 132.816 195.374C132.778 195.494 132.816 195.538 132.84 195.562C133.056 195.749 133.939 195.538 134.568 195.283C134.092 195.149 133.595 195.109 133.104 195.163Z" fill="#263238"/>
<path d="M134.846 195.346H134.813C134.333 195.264 133.334 194.712 133.306 194.299C133.306 194.203 133.339 194.069 133.56 193.992C133.718 193.938 133.89 193.949 134.04 194.021C134.568 194.275 134.88 195.197 134.894 195.235C134.903 195.248 134.907 195.263 134.907 195.278C134.907 195.294 134.903 195.309 134.894 195.322C134.881 195.334 134.865 195.343 134.846 195.346ZM133.666 194.136H133.618C133.469 194.184 133.474 194.246 133.478 194.266C133.478 194.515 134.198 194.966 134.688 195.12C134.557 194.734 134.309 194.398 133.978 194.16C133.879 194.117 133.769 194.109 133.666 194.136Z" fill="#263238"/>
<path d="M140.093 196.488L136.478 197.021L136.594 188.736L140.208 188.208L140.093 196.488Z" fill="#CE7A63"/>
<path d="M135.936 194.88H140.674C140.743 194.878 140.811 194.902 140.864 194.947C140.918 194.993 140.952 195.056 140.962 195.125L141.442 198.317C141.451 198.397 141.444 198.478 141.419 198.555C141.395 198.632 141.355 198.703 141.302 198.763C141.248 198.823 141.182 198.872 141.109 198.905C141.035 198.938 140.956 198.955 140.875 198.955C139.459 198.931 137.424 198.85 135.643 198.85C133.565 198.85 131.698 198.96 129.259 198.96C127.786 198.96 127.512 197.563 128.122 197.338C130.848 196.315 132.307 196.142 135.067 195.158C135.339 195.018 135.633 194.924 135.936 194.88Z" fill="#263238"/>
<path opacity="0.2" d="M136.594 188.741L136.531 193.008L140.15 192.475L140.213 188.208L136.594 188.741Z" fill="black"/>
<path d="M138.24 195.134C138.216 193.603 138.696 191.141 134.88 192.648C132.605 193.541 135.691 196.166 135.691 196.166L138.24 195.134Z" fill="#263238"/>
<path d="M135.773 104.971C135.773 104.971 133.853 134.045 134.395 144.384C134.923 154.181 135.221 181.973 135.288 189.264C135.291 189.486 135.341 189.704 135.434 189.905C135.528 190.106 135.663 190.285 135.831 190.43C135.999 190.575 136.196 190.682 136.408 190.745C136.621 190.808 136.844 190.825 137.064 190.795L139.618 190.45C139.959 190.403 140.275 190.246 140.518 190.002C140.76 189.759 140.916 189.442 140.962 189.101C142.613 176.232 144.576 156.379 145.003 145.752C145.483 133.622 148.469 104.952 148.469 104.952L135.773 104.971Z" fill="#407BFF"/>
<path opacity="0.2" d="M135.773 104.971C135.773 104.971 133.853 134.045 134.395 144.384C134.923 154.181 135.221 181.973 135.288 189.264C135.291 189.486 135.341 189.704 135.434 189.905C135.528 190.106 135.663 190.285 135.831 190.43C135.999 190.575 136.196 190.682 136.408 190.745C136.621 190.808 136.844 190.825 137.064 190.795L139.618 190.45C139.959 190.403 140.275 190.246 140.518 190.002C140.76 189.759 140.916 189.442 140.962 189.101C142.613 176.232 144.576 156.379 145.003 145.752C145.483 133.622 148.469 104.952 148.469 104.952L135.773 104.971Z" fill="white"/>
<path d="M159.869 195.23C159.451 195.418 159.019 195.542 158.798 195.413C158.742 195.378 158.698 195.326 158.673 195.265C158.648 195.204 158.643 195.136 158.659 195.072C158.664 195.014 158.682 194.958 158.711 194.907C158.74 194.857 158.78 194.813 158.827 194.779C159.307 194.386 160.747 194.53 160.795 194.534C160.813 194.536 160.83 194.542 160.843 194.554C160.857 194.565 160.867 194.58 160.872 194.597C160.876 194.614 160.874 194.631 160.868 194.647C160.862 194.663 160.852 194.678 160.838 194.688C160.532 194.897 160.207 195.079 159.869 195.23ZM159.072 194.822C159.023 194.846 158.976 194.875 158.933 194.909C158.903 194.929 158.879 194.955 158.86 194.986C158.842 195.017 158.831 195.051 158.827 195.086C158.827 195.206 158.856 195.25 158.885 195.264C159.13 195.413 159.96 195.043 160.536 194.688C160.044 194.638 159.547 194.684 159.072 194.822Z" fill="#263238"/>
<path d="M160.8 194.698C160.32 194.698 159.235 194.338 159.134 193.934C159.11 193.843 159.134 193.704 159.331 193.589C159.403 193.547 159.483 193.52 159.565 193.51C159.648 193.501 159.731 193.508 159.811 193.531C160.378 193.69 160.853 194.534 160.872 194.573C160.879 194.586 160.883 194.601 160.883 194.616C160.883 194.631 160.879 194.646 160.872 194.659C160.863 194.67 160.852 194.679 160.84 194.686C160.827 194.692 160.814 194.696 160.8 194.698ZM159.422 193.738H159.379C159.245 193.814 159.259 193.872 159.264 193.891C159.326 194.131 160.099 194.453 160.608 194.52C160.411 194.161 160.108 193.872 159.739 193.694C159.64 193.668 159.535 193.677 159.442 193.718L159.422 193.738Z" fill="#263238"/>
<path d="M166.397 194.909L162.989 196.066L160.728 188.054L164.131 186.898L166.397 194.909Z" fill="#CE7A63"/>
<path opacity="0.2" d="M144.73 115.368C143.736 119.347 144 135.883 145.027 145.205C145.272 139.747 145.963 131.333 146.664 123.605L144.73 115.368Z" fill="black"/>
<path d="M161.678 194.122L166.344 193.282C166.414 193.268 166.486 193.279 166.548 193.313C166.611 193.347 166.659 193.403 166.685 193.469L167.909 196.493C167.939 196.566 167.952 196.645 167.947 196.725C167.942 196.804 167.919 196.881 167.88 196.95C167.842 197.019 167.788 197.079 167.723 197.124C167.658 197.17 167.584 197.2 167.506 197.213C166.109 197.443 164.083 197.722 162.331 198.038C160.286 198.408 160.272 198.518 157.872 198.96C156.432 199.224 155.813 197.914 156.355 197.582C158.794 196.104 158.395 196.003 160.872 194.554C161.113 194.364 161.386 194.217 161.678 194.122Z" fill="#263238"/>
<path opacity="0.2" d="M160.728 188.059L161.894 192.187L165.302 191.03L164.136 186.902L160.728 188.059Z" fill="black"/>
<path d="M142.622 104.971C142.622 104.971 145.109 134.05 147.024 144.384C148.867 154.33 157.205 182.659 159.662 189.096C159.805 189.472 160.088 189.778 160.451 189.951C160.814 190.123 161.23 190.149 161.611 190.022L164.074 189.221C164.435 189.103 164.742 188.857 164.935 188.529C165.129 188.201 165.196 187.814 165.125 187.44C162.677 174.802 158.779 156.331 157.81 145.752C156.701 133.622 155.074 104.952 155.074 104.952L142.622 104.971Z" fill="#407BFF"/>
<path opacity="0.2" d="M142.622 104.971C142.622 104.971 145.109 134.05 147.024 144.384C148.867 154.33 157.205 182.659 159.662 189.096C159.805 189.472 160.088 189.778 160.451 189.951C160.814 190.123 161.23 190.149 161.611 190.022L164.074 189.221C164.435 189.103 164.742 188.857 164.935 188.529C165.129 188.201 165.196 187.814 165.125 187.44C162.677 174.802 158.779 156.331 157.81 145.752C156.701 133.622 155.074 104.952 155.074 104.952L142.622 104.971Z" fill="white"/>
<path d="M143.602 60.6144C143.63 60.9072 143.501 61.1568 143.309 61.176C143.117 61.1952 142.944 60.9744 142.915 60.696C142.886 60.4176 143.016 60.1584 143.208 60.1392C143.4 60.12 143.573 60.3264 143.602 60.6144Z" fill="#263238"/>
<path d="M140.328 60.9408C140.357 61.2288 140.227 61.4784 140.035 61.4976C139.843 61.5168 139.67 61.296 139.642 61.0176C139.613 60.7392 139.742 60.4752 139.934 60.456C140.126 60.4368 140.299 60.648 140.328 60.9408Z" fill="#263238"/>
<path d="M141.384 60.9792C141.125 61.8997 140.741 62.78 140.242 63.5952C140.454 63.7168 140.69 63.7905 140.934 63.8112C141.178 63.832 141.423 63.7992 141.653 63.7152L141.384 60.9792Z" fill="#BA4D3C"/>
<path d="M142.56 64.4352C142.538 64.4366 142.516 64.4294 142.499 64.4151C142.482 64.4008 142.471 64.3805 142.469 64.3584C142.468 64.3471 142.468 64.3355 142.472 64.3246C142.475 64.3136 142.48 64.3033 142.487 64.2944C142.494 64.2854 142.503 64.278 142.513 64.2725C142.523 64.267 142.534 64.2636 142.546 64.2624C142.907 64.2356 143.256 64.1238 143.566 63.9361C143.875 63.7484 144.136 63.4901 144.326 63.1824C144.337 63.1621 144.355 63.1468 144.376 63.1396C144.398 63.1324 144.421 63.134 144.442 63.144C144.461 63.1552 144.476 63.173 144.483 63.1943C144.49 63.2155 144.489 63.2386 144.48 63.2592C144.277 63.5946 143.997 63.8764 143.663 64.0811C143.329 64.2857 142.951 64.4071 142.56 64.4352Z" fill="#263238"/>
<path d="M144.48 59.4624C144.454 59.4646 144.427 59.461 144.402 59.4519C144.377 59.4428 144.355 59.4284 144.336 59.4096C144.197 59.2441 144.02 59.1141 143.821 59.0306C143.621 58.9472 143.404 58.9125 143.189 58.9296C143.144 58.9366 143.099 58.926 143.062 58.9C143.025 58.874 143 58.8347 142.992 58.7904C142.988 58.7683 142.988 58.7456 142.993 58.7237C142.998 58.7017 143.007 58.681 143.02 58.6626C143.033 58.6443 143.049 58.6287 143.069 58.6168C143.088 58.605 143.109 58.5971 143.131 58.5936C143.399 58.5655 143.669 58.6019 143.919 58.6996C144.17 58.7973 144.393 58.9535 144.571 59.1552C144.588 59.1709 144.601 59.1899 144.61 59.211C144.619 59.232 144.624 59.2547 144.624 59.2776C144.624 59.3006 144.619 59.3233 144.61 59.3443C144.601 59.3654 144.588 59.3843 144.571 59.4C144.548 59.4293 144.516 59.451 144.48 59.4624Z" fill="#263238"/>
<path d="M138.744 59.9232C138.719 59.9283 138.693 59.9283 138.667 59.9232C138.626 59.9043 138.594 59.8702 138.578 59.828C138.562 59.7859 138.563 59.739 138.581 59.6976C138.685 59.4476 138.847 59.2262 139.054 59.0517C139.261 58.8772 139.507 58.7547 139.771 58.6944C139.795 58.6862 139.82 58.6832 139.845 58.6857C139.87 58.6881 139.894 58.696 139.916 58.7088C139.937 58.7215 139.956 58.7389 139.97 58.7595C139.985 58.7802 139.994 58.8037 139.998 58.8284C140.003 58.8531 140.001 58.8785 139.995 58.9027C139.988 58.927 139.977 58.9495 139.96 58.9687C139.944 58.9879 139.924 59.0034 139.901 59.0141C139.879 59.0247 139.854 59.0303 139.829 59.0304C139.62 59.0813 139.427 59.1809 139.264 59.321C139.101 59.4612 138.974 59.638 138.893 59.8368C138.878 59.8633 138.857 59.8853 138.83 59.9005C138.804 59.9157 138.774 59.9236 138.744 59.9232Z" fill="#263238"/>
<path d="M150.24 72.168C152.122 72.168 156.658 72.2688 157.099 73.9488C157.541 75.6288 157.056 78.3504 156.456 79.9488C157.339 82.3872 157.056 85.9872 156.216 87.1104C157.138 89.8272 156.538 91.8288 155.976 92.7888C156.418 93.8688 156.816 96.9504 156.139 98.4672C156.696 100.627 157.334 104.227 156.336 104.952C154.978 105.912 151.363 106.392 148.81 105.787C146.256 105.182 147.259 100.027 147.456 98.8272C146.338 97.3488 147.538 92.9088 147.538 92.9088C146.976 91.6704 147.816 87.0288 147.816 87.0288C147.139 85.9104 148.018 79.8288 148.018 79.8288C147.288 78.6096 146.971 72.168 150.24 72.168Z" fill="#263238"/>
<path d="M136.421 73.2864C137.899 72.6336 142.853 71.448 141.893 72.7536C140.501 74.6496 141.355 76.6464 140.53 78.9936C141.259 81.2352 141.01 84.8976 140.333 86.1936C140.934 88.0739 140.873 90.1033 140.16 91.944C140.52 92.904 140.851 95.9136 140.29 97.584C140.77 99.6192 141.134 103.723 140.29 104.65C139.682 105.319 138.876 105.778 137.989 105.958C137.103 106.139 136.182 106.032 135.36 105.653C134.184 105.173 133.661 101.246 134.242 99.8928C133.099 97.4016 134.03 93.7104 134.03 93.7104C132.926 91.7904 133.781 87.7632 133.781 87.7632C132.686 84.192 134.03 80.2416 134.03 80.2416C133.44 79.1712 134.064 74.328 136.421 73.2864Z" fill="#263238"/>
<path d="M139.68 73.728C139.483 73.5822 139.323 73.3927 139.213 73.1745C139.102 72.9562 139.043 72.7152 139.042 72.4704C139.038 72.3064 139.066 72.1432 139.126 71.9903C139.186 71.8373 139.275 71.6977 139.389 71.5795C139.502 71.4612 139.639 71.3667 139.789 71.3013C139.94 71.2359 140.102 71.2009 140.266 71.1984C140.828 71.2451 141.374 71.4086 141.869 71.6784C142.622 72.048 142.901 72.3888 142.934 72.9456C142.968 73.5024 141.595 75.4608 140.842 74.9952C140.088 74.5296 140.102 74.208 139.68 73.728Z" fill="#263238"/>
<path opacity="0.2" d="M154.243 80.592C154.618 78.9744 155.568 79.1184 156.514 79.7808L156.446 79.968C157.33 82.4064 157.046 86.0064 156.206 87.1296C156.259 87.2832 156.307 87.4368 156.35 87.6096C155.174 86.4576 153.542 83.6448 154.243 80.592Z" fill="black"/>
<path d="M154.406 84.5424L151.214 86.0016L150.902 96.312L142.229 101.899L151.939 105.384L154.574 115.354L157.771 113.899L159.557 97.6368L154.406 84.5424Z" fill="#407BFF"/>
<path opacity="0.3" d="M154.406 84.5424L151.214 86.0016L150.902 96.312L142.229 101.899L151.939 105.384L154.574 115.354L157.771 113.899L159.557 97.6368L154.406 84.5424Z" fill="black"/>
<path d="M174.384 106.315L171.187 107.774L160.886 107.198L165.197 104.29L174.384 106.315Z" fill="#407BFF"/>
<path opacity="0.3" d="M174.384 106.315L171.187 107.774L160.886 107.198L165.197 104.29L174.384 106.315Z" fill="black"/>
<path d="M154.406 84.5424L162.403 91.0608L172.306 88.1712L168.576 97.7904L174.384 106.315L164.083 105.739L157.771 113.899L155.131 103.925L145.426 100.44L154.094 94.8528L154.406 84.5424Z" fill="#407BFF"/>
<path d="M159.432 105.038L159.36 108.298L163.2 108.082C163.2 108.082 163.718 106.042 161.51 104.621L159.432 105.038Z" fill="#CE7A63"/>
<path d="M160.594 111.562L163.253 110.03L163.205 108.082L159.36 108.298L160.594 111.562Z" fill="#CE7A63"/>
<path d="M157.229 73.8529C157.541 74.1409 157.776 74.3617 158.035 74.6161C158.294 74.8705 158.515 75.0961 158.784 75.3649C159.264 75.8689 159.744 76.3873 160.224 76.9105C161.163 77.9844 162.045 79.1058 162.869 80.2705C163.739 81.4873 164.511 82.7714 165.178 84.1105C165.98 85.6608 166.494 87.3442 166.694 89.0785C166.724 89.335 166.738 89.593 166.738 89.8513V90.2545V90.5329L166.656 91.6225C166.57 92.3377 166.483 93.0625 166.363 93.7393C166.141 95.1084 165.849 96.4653 165.49 97.8049C164.799 100.438 163.884 103.008 162.754 105.485C162.569 105.902 162.242 106.24 161.831 106.438C161.421 106.636 160.953 106.681 160.511 106.566C160.07 106.45 159.684 106.182 159.423 105.808C159.162 105.434 159.043 104.979 159.086 104.525V104.448C159.293 101.914 159.566 99.3313 159.706 96.8257C159.802 95.5681 159.84 94.3249 159.869 93.1105C159.869 92.5009 159.869 91.9057 159.869 91.3105L159.83 90.4465V90.2353V90.1441C159.821 90.076 159.806 90.0086 159.787 89.9425C159.538 89.098 159.176 88.2908 158.712 87.5425C158.127 86.5853 157.486 85.6637 156.792 84.7825C156.067 83.8609 155.29 82.9441 154.483 82.0417C154.08 81.5905 153.662 81.1489 153.25 80.7025L152.626 80.0449L152.035 79.4353L151.939 79.3345C151.255 78.6143 150.876 77.6568 150.883 76.6632C150.889 75.6696 151.281 74.7174 151.975 74.0065C152.669 73.2955 153.612 72.8814 154.605 72.8509C155.598 72.8205 156.564 73.1762 157.301 73.8433L157.229 73.8529Z" fill="#263238"/>
<path d="M151.68 73.3056C152.16 73.2384 152.285 72.1152 151.901 71.3856C151.589 70.7856 150.461 70.8672 149.453 71.1264C148.642 71.3072 147.865 71.6184 147.154 72.048C146.136 72.6096 146.506 73.2864 146.741 73.8192C146.976 74.352 147.422 75.576 148.382 74.928C149.342 74.28 151.008 73.4064 151.68 73.3056Z" fill="#263238"/>
<path d="M163.786 193.91C163.714 192.379 164.117 189.907 160.349 191.51C158.098 192.47 161.261 195.005 161.261 195.005L163.786 193.91Z" fill="#263238"/>
<path d="M116.592 74.568H121.747C121.89 74.5732 122.029 74.6219 122.144 74.7077C122.259 74.7934 122.345 74.9121 122.39 75.048L125.088 84.648C125.106 84.7039 125.11 84.7632 125.1 84.821C125.09 84.8788 125.066 84.9334 125.031 84.9803C124.996 85.0271 124.95 85.065 124.897 85.0907C124.845 85.1164 124.787 85.1292 124.728 85.128H119.568C119.426 85.1206 119.289 85.0709 119.176 84.9854C119.062 84.8999 118.976 84.7825 118.93 84.648L116.232 75.048C116.213 74.9921 116.209 74.9324 116.218 74.8742C116.227 74.8159 116.251 74.7609 116.286 74.7137C116.322 74.6665 116.368 74.6286 116.421 74.6032C116.474 74.5778 116.533 74.5658 116.592 74.568Z" fill="#407BFF"/>
<path d="M119.4 81.0384L118.32 77.28L116.438 78.0288L117.12 82.4736L119.4 81.0384Z" fill="#CE7A63"/>
<path opacity="0.3" d="M122.16 74.9136C122.211 74.9167 122.259 74.9354 122.299 74.9672C122.338 74.9991 122.367 75.0424 122.381 75.0912L125.083 84.648C125.092 84.6678 125.095 84.6893 125.092 84.7106C125.09 84.7318 125.082 84.7521 125.069 84.7695C125.057 84.7868 125.04 84.8007 125.021 84.8097C125.001 84.8187 124.98 84.8225 124.958 84.8208C124.908 84.8188 124.86 84.801 124.82 84.77C124.781 84.739 124.752 84.6963 124.738 84.648L122.045 75.0768C122.04 75.0584 122.039 75.0391 122.042 75.0203C122.046 75.0015 122.053 74.9837 122.064 74.9681C122.075 74.9525 122.089 74.9396 122.106 74.9301C122.123 74.9207 122.141 74.9151 122.16 74.9136Z" fill="black"/>
<path d="M58.8337 37.272H55.2001V37.752H58.8337V37.272Z" fill="#407BFF"/>
<path d="M41.76 42.7152H41.28C41.2813 41.2761 41.8519 39.896 42.8672 38.8762C43.8825 37.8563 45.2602 37.2796 46.6992 37.272H53.2272V37.752H46.6992C45.3875 37.7596 44.1319 38.2857 43.2066 39.2156C42.2813 40.1454 41.7613 41.4034 41.76 42.7152Z" fill="#407BFF"/>
<path d="M103.373 38.952H46.6992C44.6235 38.952 42.9408 40.6347 42.9408 42.7104V52.0416C42.9408 54.1173 44.6235 55.8 46.6992 55.8H103.373C105.449 55.8 107.131 54.1173 107.131 52.0416V42.7104C107.131 40.6347 105.449 38.952 103.373 38.952Z" fill="#407BFF"/>
<path d="M67.3681 44.8369L68.1937 46.5073L70.0417 46.7761L68.7025 48.0769L69.0193 49.9201L67.3681 49.0513L65.7169 49.9201L66.0337 48.0769L64.6945 46.7761L66.5425 46.5073L67.3681 44.8369Z" fill="white"/>
<path d="M74.8656 44.8369L75.6912 46.5073L77.5392 46.7761L76.2 48.0769L76.5168 49.9201L74.8656 49.0513L73.2144 49.9201L73.5312 48.0769L72.192 46.7761L74.04 46.5073L74.8656 44.8369Z" fill="white"/>
<path d="M82.3632 44.8369L83.1888 46.5073L85.0368 46.7761L83.7024 48.0769L84.0144 49.9201L82.3632 49.0513L80.712 49.9201L81.0288 48.0769L79.6896 46.7761L81.5376 46.5073L82.3632 44.8369Z" fill="white"/>
<path d="M89.8609 44.8369L90.6865 46.5073L92.5345 46.7761L91.2001 48.0769L91.5121 49.9201L89.8609 49.0513L88.2097 49.9201L88.5265 48.0769L87.1873 46.7761L89.0353 46.5073L89.8609 44.8369Z" fill="white"/>
<path opacity="0.3" d="M97.3585 45.9216L97.7521 46.7232C97.7872 46.7928 97.8388 46.8528 97.9024 46.8979C97.966 46.9431 98.0396 46.9721 98.1169 46.9824L99.0001 47.112L98.3617 47.736C98.3061 47.79 98.2644 47.8566 98.2402 47.9301C98.2159 48.0037 98.2099 48.082 98.2225 48.1584L98.3713 49.0416L97.5841 48.648C97.5136 48.6142 97.4366 48.5962 97.3585 48.5952C97.2817 48.5949 97.206 48.613 97.1377 48.648L96.3457 49.0656L96.4801 48.168C96.4926 48.0916 96.4866 48.0133 96.4623 47.9397C96.4381 47.8662 96.3964 47.7996 96.3409 47.7456L95.7025 47.1216L96.5857 46.992C96.6651 46.9827 96.741 46.9537 96.8064 46.9076C96.8718 46.8615 96.9246 46.7997 96.9601 46.728L97.3537 45.9264M97.3537 44.8416L96.5281 46.512L94.6801 46.7808L96.0193 48.0864L95.7025 49.9248L97.3537 49.056L99.0049 49.9248L98.6881 48.0864L100.027 46.7808L98.1793 46.512L97.3537 44.8416Z" fill="white"/>
<path opacity="0.2" d="M54.648 53.1408C57.8318 53.1408 60.4128 50.5598 60.4128 47.376C60.4128 44.1922 57.8318 41.6112 54.648 41.6112C51.4642 41.6112 48.8832 44.1922 48.8832 47.376C48.8832 50.5598 51.4642 53.1408 54.648 53.1408Z" fill="white"/>
<path d="M59.4097 47.376C59.4109 48.4352 59.0586 49.4645 58.4085 50.3008C57.7585 51.1371 56.8479 51.7325 55.8211 51.9927C54.7943 52.2528 53.7101 52.1628 52.7403 51.7369C51.7705 51.311 50.9705 50.5736 50.4673 49.6416C50.0869 48.9472 49.8887 48.1677 49.8913 47.376C49.9305 46.1399 50.4491 44.9677 51.3374 44.1072C52.2256 43.2467 53.4138 42.7656 54.6505 42.7656C55.8871 42.7656 57.0753 43.2467 57.9635 44.1072C58.8518 44.9677 59.3704 46.1399 59.4097 47.376Z" fill="white"/>
<path d="M58.8337 49.6416C58.4267 50.3967 57.823 51.0276 57.0865 51.4673C56.35 51.907 55.5083 52.1392 54.6505 52.1392C53.7927 52.1392 52.9509 51.907 52.2144 51.4673C51.478 51.0276 50.8742 50.3967 50.4673 49.6416C51.7058 48.8151 53.1615 48.374 54.6505 48.374C56.1395 48.374 57.5951 48.8151 58.8337 49.6416Z" fill="#263238"/>
<path d="M56.7697 45.768C56.7697 46.1876 56.6453 46.5978 56.4121 46.9467C56.179 47.2956 55.8477 47.5675 55.46 47.7281C55.0723 47.8887 54.6457 47.9307 54.2342 47.8489C53.8226 47.767 53.4446 47.5649 53.1479 47.2682C52.8512 46.9715 52.6491 46.5935 52.5673 46.1819C52.4854 45.7704 52.5274 45.3438 52.688 44.9561C52.8486 44.5685 53.1205 44.2371 53.4694 44.004C53.8183 43.7709 54.2285 43.6464 54.6481 43.6464C55.2108 43.6464 55.7504 43.8699 56.1483 44.2678C56.5462 44.6657 56.7697 45.2053 56.7697 45.768Z" fill="#FFC3BD"/>
<path d="M99.4656 97.5024H89.8608V97.9824H99.4656V97.5024Z" fill="#407BFF"/>
<path d="M103.373 79.4544H46.6992C44.6235 79.4544 42.9408 81.1371 42.9408 83.2128V92.544C42.9408 94.6197 44.6235 96.3024 46.6992 96.3024H103.373C105.449 96.3024 107.131 94.6197 107.131 92.544V83.2128C107.131 81.1371 105.449 79.4544 103.373 79.4544Z" fill="#407BFF"/>
<path d="M67.3681 85.3344L68.1937 87.0096L70.0417 87.2736L68.7025 88.5792L69.0193 90.4176L67.3681 89.5488L65.7169 90.4176L66.0337 88.5792L64.6945 87.2736L66.5425 87.0096L67.3681 85.3344Z" fill="white"/>
<path d="M74.8656 85.3344L75.6912 87.0096L77.5392 87.2736L76.2 88.5792L76.5168 90.4176L74.8656 89.5488L73.2144 90.4176L73.5312 88.5792L72.192 87.2736L74.04 87.0096L74.8656 85.3344Z" fill="white"/>
<path d="M82.3632 85.3344L83.1888 87.0096L85.0368 87.2736L83.7024 88.5792L84.0144 90.4176L82.3632 89.5488L80.712 90.4176L81.0288 88.5792L79.6896 87.2736L81.5376 87.0096L82.3632 85.3344Z" fill="white"/>
<path d="M89.8609 85.3344L90.6865 87.0096L92.5345 87.2736L91.2001 88.5792L91.5121 90.4176L89.8609 89.5488L88.2097 90.4176L88.5265 88.5792L87.1873 87.2736L89.0353 87.0096L89.8609 85.3344Z" fill="white"/>
<path d="M97.3584 85.3344L98.184 87.0096L100.032 87.2736L98.6976 88.5792L99.0096 90.4176L97.3584 89.5488L95.7072 90.4176L96.024 88.5792L94.6848 87.2736L96.5328 87.0096L97.3584 85.3344Z" fill="white"/>
<path opacity="0.2" d="M58.7275 91.954C60.9788 89.7027 60.9788 86.0526 58.7275 83.8014C56.4762 81.5501 52.8262 81.5501 50.5749 83.8014C48.3236 86.0527 48.3236 89.7027 50.5749 91.954C52.8262 94.2053 56.4762 94.2053 58.7275 91.954Z" fill="white"/>
<path d="M59.4097 87.8736C59.412 88.9333 59.0604 89.9633 58.4107 90.8004C57.7611 91.6375 56.8505 92.2337 55.8234 92.4945C54.7964 92.7553 53.7117 92.6656 52.7414 92.2398C51.7711 91.814 50.9707 91.0764 50.4673 90.144C50.0869 89.4479 49.8888 88.6669 49.8913 87.8736C49.9305 86.6376 50.4491 85.4653 51.3374 84.6048C52.2256 83.7443 53.4138 83.2632 54.6505 83.2632C55.8871 83.2632 57.0753 83.7443 57.9635 84.6048C58.8518 85.4653 59.3704 86.6376 59.4097 87.8736Z" fill="white"/>
<path opacity="0.5" d="M58.8337 90.1441C58.4256 90.8978 57.8215 91.5273 57.0852 91.9661C56.3488 92.4048 55.5076 92.6364 54.6505 92.6364C53.7934 92.6364 52.9522 92.4048 52.2158 91.9661C51.4795 91.5273 50.8753 90.8978 50.4673 90.1441C51.7058 89.3175 53.1615 88.8764 54.6505 88.8764C56.1395 88.8764 57.5951 89.3175 58.8337 90.1441Z" fill="#407BFF"/>
<path d="M56.7697 86.2464C56.7706 86.6663 56.647 87.0769 56.4145 87.4264C56.1819 87.776 55.8509 88.0486 55.4633 88.21C55.0757 88.3713 54.649 88.414 54.2371 88.3327C53.8253 88.2513 53.4468 88.0497 53.1496 87.7531C52.8524 87.4566 52.6499 87.0786 52.5676 86.6669C52.4854 86.2552 52.5271 85.8284 52.6875 85.4405C52.848 85.0525 53.1199 84.7209 53.4689 84.4875C53.8179 84.2542 54.2283 84.1296 54.6481 84.1296C55.2099 84.1296 55.7488 84.3525 56.1466 84.7493C56.5443 85.1462 56.7684 85.6846 56.7697 86.2464Z" fill="#FFB573"/>
<path d="M103.373 59.2032H46.6992C44.6235 59.2032 42.9408 60.8859 42.9408 62.9617V72.2928C42.9408 74.3686 44.6235 76.0512 46.6992 76.0512H103.373C105.449 76.0512 107.131 74.3686 107.131 72.2928V62.9617C107.131 60.8859 105.449 59.2032 103.373 59.2032Z" fill="#407BFF"/>
<path d="M105.389 69.0673L101.357 76.0513H111.437L105.389 69.0673Z" fill="#407BFF"/>
<path d="M67.3681 65.0833L68.1937 66.7584L70.0417 67.0272L68.7025 68.328L69.0193 70.1665L67.3681 69.2977L65.7169 70.1665L66.0337 68.328L64.6945 67.0272L66.5425 66.7584L67.3681 65.0833Z" fill="white"/>
<path d="M74.8656 65.0833L75.6912 66.7584L77.5392 67.0272L76.2 68.328L76.5168 70.1665L74.8656 69.2977L73.2144 70.1665L73.5312 68.328L72.192 67.0272L74.04 66.7584L74.8656 65.0833Z" fill="white"/>
<path opacity="0.3" d="M82.3632 66.168L82.7568 66.9696C82.7914 67.0401 82.8427 67.101 82.9063 67.147C82.9699 67.1931 83.0439 67.2228 83.1216 67.2336L84 67.368L83.3616 67.992C83.3061 68.046 83.2644 68.1126 83.2401 68.1861C83.2159 68.2597 83.2098 68.338 83.2224 68.4144L83.3712 69.2976L82.584 68.88C82.5147 68.8426 82.4372 68.8228 82.3584 68.8224C82.2811 68.8222 82.205 68.842 82.1376 68.88L81.3456 69.2976L81.4944 68.4144C81.507 68.338 81.5009 68.2597 81.4767 68.1861C81.4525 68.1126 81.4108 68.046 81.3552 67.992L80.7168 67.368L81.6 67.2384C81.6778 67.2276 81.7517 67.1979 81.8153 67.1518C81.8789 67.1058 81.9302 67.0449 81.9648 66.9744L82.3584 66.1728M82.3584 65.088L81.5328 66.7632L79.6848 67.032L81.024 68.3328L80.7072 70.1712L82.3584 69.3024L84.0096 70.1712L83.6928 68.3328L85.032 67.032L83.184 66.7632L82.3584 65.088Z" fill="white"/>
<path opacity="0.3" d="M89.8609 66.168L90.2545 66.9696C90.289 67.0401 90.3404 67.1011 90.404 67.1471C90.4676 67.1931 90.5415 67.2228 90.6193 67.2336L91.5025 67.3633L90.8641 67.9872C90.8085 68.0412 90.7668 68.1078 90.7426 68.1814C90.7183 68.2549 90.7123 68.3332 90.7249 68.4096L90.8737 69.2928L90.0865 68.8752C90.0171 68.8378 89.9396 68.818 89.8609 68.8177C89.7835 68.8174 89.7074 68.8372 89.6401 68.8752L88.8481 69.2928L88.9969 68.4096C89.0095 68.3332 89.0034 68.2549 88.9791 68.1814C88.9549 68.1078 88.9132 68.0412 88.8577 67.9872L88.2193 67.3633L89.1025 67.2336C89.1802 67.2228 89.2541 67.1931 89.3177 67.1471C89.3813 67.1011 89.4327 67.0401 89.4673 66.9696L89.8609 66.168ZM89.8609 65.0833L89.0353 66.7584L87.1873 67.0272L88.5265 68.328L88.2097 70.1665L89.8609 69.2977L91.5121 70.1665L91.2001 68.328L92.5393 67.0272L90.6913 66.7584L89.8657 65.0833H89.8609Z" fill="white"/>
<path opacity="0.3" d="M97.3584 66.168L97.752 66.9696C97.7866 67.0401 97.8379 67.1011 97.9015 67.1471C97.9651 67.1931 98.0391 67.2228 98.1168 67.2336L99 67.3633L98.3616 67.9872C98.3061 68.0412 98.2644 68.1078 98.2401 68.1814C98.2159 68.2549 98.2098 68.3332 98.2224 68.4096L98.3712 69.2928L97.584 68.8752C97.5147 68.8378 97.4372 68.818 97.3584 68.8177C97.2811 68.8174 97.205 68.8372 97.1376 68.8752L96.3456 69.2928L96.4944 68.4096C96.507 68.3332 96.5009 68.2549 96.4767 68.1814C96.4525 68.1078 96.4108 68.0412 96.3552 67.9872L95.7168 67.3633L96.6 67.2336C96.6778 67.2228 96.7517 67.1931 96.8153 67.1471C96.8789 67.1011 96.9302 67.0401 96.9648 66.9696L97.3584 66.168ZM97.3584 65.0833L96.5328 66.7584L94.6848 67.0272L96.024 68.328L95.7072 70.1665L97.3584 69.2977L99.0096 70.1665L98.6928 68.328L100.032 67.0272L98.184 66.7584L97.3584 65.0833Z" fill="white"/>
<path opacity="0.2" d="M54.648 73.392C57.8318 73.392 60.4128 70.811 60.4128 67.6272C60.4128 64.4434 57.8318 61.8624 54.648 61.8624C51.4642 61.8624 48.8832 64.4434 48.8832 67.6272C48.8832 70.811 51.4642 73.392 54.648 73.392Z" fill="white"/>
<path d="M59.4096 67.6272C59.4108 68.6864 59.0585 69.7158 58.4084 70.5521C57.7584 71.3884 56.8478 71.9837 55.821 72.2439C54.7943 72.504 53.71 72.414 52.7402 71.9881C51.7704 71.5623 50.9704 70.8249 50.4672 69.8928C50.0868 69.1984 49.8887 68.419 49.8912 67.6272C49.8709 66.9895 49.979 66.3543 50.2091 65.7592C50.4392 65.164 50.7865 64.6212 51.2304 64.163C51.6743 63.7047 52.2058 63.3404 52.7933 63.0915C53.3808 62.8427 54.0124 62.7145 54.6504 62.7145C55.2884 62.7145 55.9199 62.8427 56.5074 63.0915C57.0949 63.3404 57.6264 63.7047 58.0704 64.163C58.5143 64.6212 58.8616 65.164 59.0917 65.7592C59.3217 66.3543 59.4298 66.9895 59.4096 67.6272Z" fill="white"/>
<path d="M58.8337 69.8928C58.4256 70.6466 57.8215 71.2761 57.0852 71.7148C56.3488 72.1535 55.5076 72.3851 54.6505 72.3851C53.7934 72.3851 52.9522 72.1535 52.2158 71.7148C51.4795 71.2761 50.8753 70.6466 50.4673 69.8928C51.7058 69.0663 53.1615 68.6252 54.6505 68.6252C56.1395 68.6252 57.5951 69.0663 58.8337 69.8928Z" fill="#407BFF"/>
<path d="M56.7697 66C56.7697 66.4196 56.6453 66.8298 56.4121 67.1787C56.179 67.5276 55.8477 67.7996 55.46 67.9601C55.0723 68.1207 54.6457 68.1627 54.2342 68.0809C53.8226 67.999 53.4446 67.7969 53.1479 67.5002C52.8512 67.2035 52.6491 66.8255 52.5673 66.4139C52.4854 66.0024 52.5274 65.5758 52.688 65.1881C52.8486 64.8005 53.1205 64.4691 53.4694 64.236C53.8183 64.0029 54.2285 63.8784 54.6481 63.8784C54.9269 63.8778 55.2031 63.9322 55.4607 64.0386C55.7184 64.145 55.9526 64.3013 56.1497 64.4984C56.3468 64.6956 56.5031 64.9297 56.6095 65.1874C56.7159 65.4451 56.7703 65.7212 56.7697 66Z" fill="#B55B52"/>
</svg>
