<svg width="135" height="25" viewBox="0 0 135 25" fill="none" xmlns="http://www.w3.org/2000/svg">
<path d="M5.54712 19.692C5.54712 19.9267 4.85045 20.044 3.45712 20.044C2.04912 20.044 1.34512 19.934 1.34512 19.714V5.37C1.34512 4.85667 1.61645 4.6 2.15912 4.6H6.36112C10.2185 4.6 12.1471 6.10333 12.1471 9.11C12.1471 10.0193 11.9711 10.848 11.6191 11.596C11.2671 12.3293 10.7685 12.916 10.1231 13.356L12.8951 17.976C12.7778 18.328 12.3965 18.7313 11.7511 19.186C10.8711 19.8167 10.1451 20.132 9.57312 20.132C9.00112 20.132 8.57578 19.9267 8.29712 19.516L6.22912 14.698H5.54712V19.692ZM5.54712 8.494V11.794H5.65712C7.05045 11.794 7.74712 11.2147 7.74712 10.056C7.74712 9.528 7.60778 9.13933 7.32912 8.89C7.06512 8.626 6.62512 8.494 6.00912 8.494H5.54712ZM21.4717 10.716C21.7503 10.716 21.8897 11.2293 21.8897 12.256C21.8897 12.564 21.853 12.9307 21.7797 13.356C21.721 13.7667 21.6037 13.972 21.4277 13.972H18.6337V16.172H22.6817C22.931 16.172 23.0997 16.4947 23.1877 17.14C23.2317 17.4187 23.2537 17.7193 23.2537 18.042C23.2537 18.35 23.2097 18.7533 23.1217 19.252C23.0337 19.7507 22.887 20 22.6817 20H15.1577C14.6003 20 14.3217 19.7727 14.3217 19.318V5.172C14.3217 4.79067 14.4903 4.6 14.8277 4.6H22.7037C23.0117 4.6 23.1657 5.25267 23.1657 6.558C23.1657 7.84867 23.0117 8.494 22.7037 8.494H18.6337V10.716H21.4717ZM31.4633 4.402C32.534 4.402 33.4726 4.556 34.2793 4.864C35.1006 5.15733 35.5113 5.56067 35.5113 6.074C35.5113 6.58733 35.3133 7.22533 34.9173 7.988C34.536 8.736 34.2133 9.11 33.9493 9.11C33.876 9.11 33.788 9.07333 33.6853 9C33.5973 8.912 33.3773 8.824 33.0253 8.736C32.688 8.63333 32.3946 8.582 32.1453 8.582C31.2946 8.582 30.6053 8.88267 30.0773 9.484C29.564 10.0853 29.3073 11.0093 29.3073 12.256C29.3073 13.488 29.5713 14.4047 30.0993 15.006C30.642 15.6073 31.324 15.908 32.1453 15.908C32.4826 15.908 32.8566 15.864 33.2673 15.776C33.6926 15.6733 33.9933 15.534 34.1693 15.358C34.1986 15.3287 34.2573 15.314 34.3453 15.314C34.4333 15.314 34.5946 15.4827 34.8293 15.82C35.0786 16.1427 35.306 16.5753 35.5113 17.118C35.7166 17.646 35.8193 18.0567 35.8193 18.35C35.8193 18.922 35.3793 19.3767 34.4993 19.714C33.6193 20.0513 32.578 20.22 31.3753 20.22C29.4393 20.22 27.848 19.538 26.6013 18.174C25.3546 16.81 24.7313 14.8887 24.7313 12.41C24.7313 9.91667 25.3693 7.95867 26.6453 6.536C27.936 5.11333 29.542 4.402 31.4633 4.402ZM37.2833 18.702V5.018C37.2833 4.71 38.024 4.556 39.5053 4.556C41.0013 4.556 41.7493 4.71 41.7493 5.018V15.798H45.1373C45.4013 15.798 45.5847 16.1427 45.6873 16.832C45.7313 17.1693 45.7533 17.514 45.7533 17.866C45.7533 18.218 45.7313 18.5773 45.6873 18.944C45.57 19.648 45.3793 20 45.1153 20H38.3393C38.0167 20 37.76 19.868 37.5693 19.604C37.3787 19.34 37.2833 19.0393 37.2833 18.702ZM57.4039 20.044C56.1279 20.044 55.4385 19.8387 55.3359 19.428L54.6099 16.59H51.1119L50.4739 19.318C50.3859 19.7727 49.6819 20 48.3619 20C47.6579 20 47.1372 19.9633 46.7999 19.89C46.4625 19.802 46.2939 19.736 46.2939 19.692L50.1879 4.798C50.1879 4.68067 51.1925 4.622 53.2019 4.622C55.2112 4.622 56.2159 4.68067 56.2159 4.798L60.0219 19.714C60.0219 19.8167 59.6845 19.8973 59.0099 19.956C58.3352 20.0147 57.7999 20.044 57.4039 20.044ZM51.6619 13.796H53.9719L52.9819 9.242H52.8499L51.6619 13.796ZM76.8799 20.022C75.5746 20.022 74.9219 19.8753 74.9219 19.582L74.4599 10.76L71.7759 19.692C71.7172 19.868 71.2185 19.956 70.2799 19.956C69.3412 19.956 68.8572 19.8753 68.8279 19.714L66.0559 10.672L65.7479 19.45C65.7332 19.67 65.4545 19.824 64.9119 19.912C64.3692 19.9853 63.9145 20.022 63.5479 20.022C63.1959 20.022 62.8512 20 62.5139 19.956C61.8099 19.8533 61.4652 19.67 61.4799 19.406L61.9859 5.106C61.9859 4.754 62.8805 4.578 64.6699 4.578C65.1979 4.578 65.8432 4.622 66.6059 4.71C67.3685 4.78333 67.7939 4.93733 67.8819 5.172L70.3459 12.102L72.5019 5.15C72.6339 4.76867 73.6459 4.578 75.5379 4.578C76.0805 4.578 76.7259 4.622 77.4739 4.71C78.2366 4.78333 78.6179 4.92267 78.6179 5.128L79.2559 19.56C79.2559 19.7213 78.9699 19.8387 78.3979 19.912C77.8259 19.9853 77.3199 20.022 76.8799 20.022ZM91.7789 20.044C90.5029 20.044 89.8135 19.8387 89.7109 19.428L88.9849 16.59H85.4869L84.8489 19.318C84.7609 19.7727 84.0569 20 82.7369 20C82.0329 20 81.5122 19.9633 81.1749 19.89C80.8375 19.802 80.6689 19.736 80.6689 19.692L84.5629 4.798C84.5629 4.68067 85.5675 4.622 87.5769 4.622C89.5862 4.622 90.5909 4.68067 90.5909 4.798L94.3969 19.714C94.3969 19.8167 94.0595 19.8973 93.3849 19.956C92.7102 20.0147 92.1749 20.044 91.7789 20.044ZM86.0369 13.796H88.3469L87.3569 9.242H87.2249L86.0369 13.796Z" fill="#2A7221"/>
<path d="M102.53 4.402C103.6 4.402 104.539 4.556 105.346 4.864C106.167 5.15733 106.578 5.56067 106.578 6.074C106.578 6.58733 106.38 7.22533 105.984 7.988C105.602 8.736 105.28 9.11 105.016 9.11C104.942 9.11 104.854 9.07333 104.752 9C104.664 8.912 104.444 8.824 104.092 8.736C103.754 8.63333 103.461 8.582 103.212 8.582C102.361 8.582 101.672 8.88267 101.144 9.484C100.63 10.0853 100.374 11.0093 100.374 12.256C100.374 13.488 100.638 14.4047 101.166 15.006C101.708 15.6073 102.39 15.908 103.212 15.908C103.549 15.908 103.923 15.864 104.334 15.776C104.759 15.6733 105.06 15.534 105.236 15.358C105.265 15.3287 105.324 15.314 105.412 15.314C105.5 15.314 105.661 15.4827 105.896 15.82C106.145 16.1427 106.372 16.5753 106.578 17.118C106.783 17.646 106.886 18.0567 106.886 18.35C106.886 18.922 106.446 19.3767 105.566 19.714C104.686 20.0513 103.644 20.22 102.442 20.22C100.506 20.22 98.9144 19.538 97.6677 18.174C96.421 16.81 95.7977 14.8887 95.7977 12.41C95.7977 9.91667 96.4357 7.95867 97.7117 6.536C99.0024 5.11333 100.608 4.402 102.53 4.402ZM118.91 20.044C117.634 20.044 116.944 19.8387 116.842 19.428L116.116 16.59H112.618L111.98 19.318C111.892 19.7727 111.188 20 109.868 20C109.164 20 108.643 19.9633 108.306 19.89C107.968 19.802 107.8 19.736 107.8 19.692L111.694 4.798C111.694 4.68067 112.698 4.622 114.708 4.622C116.717 4.622 117.722 4.68067 117.722 4.798L121.528 19.714C121.528 19.8167 121.19 19.8973 120.516 19.956C119.841 20.0147 119.306 20.044 118.91 20.044ZM113.168 13.796H115.478L114.488 9.242H114.356L113.168 13.796ZM127.188 19.692C127.188 19.9267 126.491 20.044 125.098 20.044C123.69 20.044 122.986 19.934 122.986 19.714V5.37C122.986 4.85667 123.257 4.6 123.8 4.6H128.002C131.859 4.6 133.788 6.10333 133.788 9.11C133.788 10.0193 133.612 10.848 133.26 11.596C132.908 12.3293 132.409 12.916 131.764 13.356L134.536 17.976C134.418 18.328 134.037 18.7313 133.392 19.186C132.512 19.8167 131.786 20.132 131.214 20.132C130.642 20.132 130.216 19.9267 129.938 19.516L127.87 14.698H127.188V19.692ZM127.188 8.494V11.794H127.298C128.691 11.794 129.388 11.2147 129.388 10.056C129.388 9.528 129.248 9.13933 128.97 8.89C128.706 8.626 128.266 8.494 127.65 8.494H127.188Z" fill="#2A7221"/>
</svg>
